<?xml version="1.0" encoding="utf-8"?>
<svg xmlns="http://www.w3.org/2000/svg" viewBox="61.7517 85.7757 376.4966 328.4487" width="376.497px" height="328.449px">
  <g transform="matrix(0.9999999999999999, 0, 0, 0.9999999999999999, -22.195571899414176, 12.174667358398438)">
    <g transform="matrix(1, 0, 0, 1, 18.447277, -5.468642)">
      <path style="opacity: 1; fill: rgb(26, 51, 80);" d="M 216.5,80.5 C 219.167,80.5 221.833,80.5 224.5,80.5C 249.977,97.0749 275.31,113.908 300.5,131C 304.092,133.713 307.592,136.547 311,139.5C 313,143.833 313,148.167 311,152.5C 308.626,156.078 306.126,159.578 303.5,163C 297.511,165.334 291.844,164.668 286.5,161C 259.953,142.28 233.286,123.78 206.5,105.5C 203.272,101.457 202.772,97.1235 205,92.5C 207.691,87.3111 211.524,83.3111 216.5,80.5 Z"/>
    </g>
    <g transform="matrix(1, 0, 0, 1, 18.447277, -5.468642)">
      <path style="opacity: 1; fill: rgb(26, 51, 80);" d="M 269.5 158.5 C 269.81 160.144 270.81 161.144 272.5 161.5 C 276.737 163.407 280.404 165.466 283.5 168.892 C 277.868 176.867 272.201 184.867 266.5 192.892 C 266.977 193.87 267.643 195.311 268.5 196 C 321.757 231.415 375.423 266.249 429.5 300.5 C 441.161 307.269 444.661 317.269 440 330.5 C 432.569 342.956 422.069 346.456 408.5 341 C 382.315 321.303 356.315 301.47 330.5 281.5 C 329.461 279.469 327.795 278.136 325.5 277.5 C 310.467 266.984 295.8 255.984 281.5 244.5 C 281.027 243.094 280.027 242.427 278.5 242.5 C 268.53 235.176 258.53 227.843 248.5 220.5 C 241.669 228.826 234.835 237.159 228 245.5 C 202.908 228.747 178.074 211.58 153.5 194 C 167.813 171.857 182.48 150.023 197.5 128.5 C 199.104 127.713 199.771 126.38 199.5 124.5 C 201.645 121.567 203.812 118.567 206 115.5 C 227.054 130.063 248.22 144.397 269.5 158.5 Z"/>
    </g>
    <g transform="matrix(1, 0, 0, 1, 18.447277, -5.468642)">
      <path style="opacity:0.361" fill="#b6bebf" d="M 199.5,124.5 C 199.771,126.38 199.104,127.713 197.5,128.5C 197.66,126.847 198.326,125.514 199.5,124.5 Z"/>
    </g>
    <g transform="matrix(1, 0, 0, 1, 18.447277, -5.468642)">
      <path style="opacity:0.008" fill="#bcc1c4" d="M 269.5,158.5 C 271.19,158.856 272.19,159.856 272.5,161.5C 270.81,161.144 269.81,160.144 269.5,158.5 Z"/>
    </g>
    <g transform="matrix(1, 0, 0, 1, 18.447277, -5.468642)">
      <path style="opacity: 1; fill: rgb(26, 51, 80);" d="M 164.5,250.5 C 164.179,248.952 163.179,248.285 161.5,248.5C 160.5,248.167 159.833,247.5 159.5,246.5C 159.027,245.094 158.027,244.427 156.5,244.5C 145.351,237.752 134.684,230.252 124.5,222C 122.271,209.275 127.271,201.108 139.5,197.5C 141.5,198 143.5,198.5 145.5,199C 172.928,217.463 200.095,236.297 227,255.5C 228.766,257.881 229.932,260.548 230.5,263.5C 228.218,270.915 223.884,276.749 217.5,281C 214.833,281.667 212.167,281.667 209.5,281C 194.471,270.823 179.471,260.657 164.5,250.5 Z"/>
    </g>
    <g transform="matrix(1, 0, 0, 1, 18.447277, -5.468642)">
      <path style="opacity:0.173" fill="#bdc2c6" d="M 278.5,242.5 C 280.027,242.427 281.027,243.094 281.5,244.5C 279.973,244.573 278.973,243.906 278.5,242.5 Z"/>
    </g>
    <g transform="matrix(1, 0, 0, 1, 18.447277, -5.468642)">
      <path style="opacity:0.38" fill="#abb0b3" d="M 156.5,244.5 C 158.027,244.427 159.027,245.094 159.5,246.5C 157.973,246.573 156.973,245.906 156.5,244.5 Z"/>
    </g>
    <g transform="matrix(1, 0, 0, 1, 18.447277, -5.468642)">
      <path style="opacity:0.137" fill="#b9bcc1" d="M 161.5,248.5 C 163.179,248.285 164.179,248.952 164.5,250.5C 163.29,250.068 162.29,249.401 161.5,248.5 Z"/>
    </g>
    <g transform="matrix(1, 0, 0, 1, 18.447277, -5.468642)">
      <path style="opacity:0.412" fill="#8e92a6" d="M 325.5,277.5 C 327.795,278.136 329.461,279.469 330.5,281.5C 328.246,280.876 326.579,279.543 325.5,277.5 Z"/>
    </g>
    <g transform="matrix(1, 0, 0, 1, 18.447277, -5.468642)">
      <path style="opacity: 1; fill: rgb(26, 51, 80);" d="M 109.5,335.5 C 109.389,336.117 109.056,336.617 108.5,337C 130.167,337.167 151.833,337.333 173.5,337.5C 195.51,337.5 217.177,336.833 238.5,335.5C 243.258,335.961 246.758,338.294 249,342.5C 249.667,349.167 249.667,355.833 249,362.5C 248.617,363.056 248.117,363.389 247.5,363.5C 247.5,362.5 247.5,361.5 247.5,360.5C 205.82,359.839 164.487,360.506 123.5,362.5C 117.386,363.405 110.553,363.738 103,363.5C 100.444,363.637 98.2775,362.804 96.5,361C 97.1495,354.401 97.8162,347.901 98.5,341.5C 99.8333,340.833 100.833,339.833 101.5,338.5C 103.848,336.903 106.514,335.903 109.5,335.5 Z"/>
    </g>
    <g transform="matrix(1, 0, 0, 1, 18.447277, -5.468642)">
      <path style="opacity: 0.477; fill: rgb(26, 51, 80);" d="M 109.5,335.5 C 152.5,335.5 195.5,335.5 238.5,335.5C 217.177,336.833 195.51,337.5 173.5,337.5C 151.833,337.333 130.167,337.167 108.5,337C 109.056,336.617 109.389,336.117 109.5,335.5 Z"/>
    </g>
    <g transform="matrix(1, 0, 0, 1, 18.447277, -5.468642)">
      <path style="opacity:0.325" fill="#abb0b4" d="M 101.5,338.5 C 100.833,339.833 99.8333,340.833 98.5,341.5C 98.5,339.5 99.5,338.5 101.5,338.5 Z"/>
    </g>
    <g transform="matrix(1, 0, 0, 1, 18.805428, -5.550572)">
      <path style="opacity: 0.984; fill: rgb(26, 51, 80);" d="M 247.5,363.5 C 206.302,363.768 164.969,363.435 123.5,362.5C 164.487,360.506 205.82,359.839 247.5,360.5C 247.5,361.5 247.5,362.5 247.5,363.5 Z"/>
    </g>
    <g transform="matrix(1, 0, 0, 1, 18.447277, -5.468642)">
      <path style="opacity:0.239" fill="#62666b" d="M 161.5,366.5 C 133.338,367.498 105.005,367.831 76.5,367.5C 85.2349,366.821 94.0682,366.154 103,365.5C 123.608,365.633 143.108,365.966 161.5,366.5 Z"/>
    </g>
    <g transform="matrix(1, 0, 0, 1, 18.447277, -5.468642)">
      <path style="opacity:1" fill="#36424d" d="M 67.5,406.5 C 67.5,396.833 67.5,387.167 67.5,377.5C 68.428,372.241 71.428,368.908 76.5,367.5C 105.005,367.831 133.338,367.498 161.5,366.5C 188.381,365.802 214.881,365.469 241,365.5C 250.089,366.319 259.256,366.819 268.5,367C 274,368.5 277.5,372 279,377.5C 279.818,387.411 279.651,397.244 278.5,407C 208.096,407.83 137.763,407.663 67.5,406.5 Z"/>
    </g>
    <g transform="matrix(1, 0, 0, 1, 18.447277, -5.468642)">
      <path style="opacity:0.29" fill="#a0a6a9" d="M 67.5,377.5 C 67.5,387.167 67.5,396.833 67.5,406.5C 66.4749,405.626 65.8082,404.459 65.5,403C 66.0592,394.631 66.7259,386.131 67.5,377.5 Z"/>
    </g>
    <rect x="125.281" y="332.358" width="26.351" height="22.587" style="fill: rgb(26, 51, 80); stroke: rgba(0, 0, 0, 0);"/>
    <rect x="112.269" y="329.688" width="157.47" height="28.441" style="stroke: rgba(0, 0, 0, 0); fill: rgb(26, 51, 80);"/>
    <rect x="85.56" y="360.359" width="213.069" height="40.474" style="stroke: rgba(0, 0, 0, 0); fill: rgb(26, 51, 80); stroke-width: 1;"/>
    <path style="stroke: rgba(0, 0, 0, 0); fill: rgb(26, 51, 80);" d="M 301.073 227.612 L 300.295 227.941 L 294.848 235.521 L 349.424 276.39 L 359.206 264.635 L 303.407 225.634 L 301.295 226.952"/>
    <path style="stroke: rgba(0, 0, 0, 0); fill: rgb(26, 51, 80);" d="M 175.39 224.416 L 227.929 275.54 L 201.458 257.555 L 162.256 230.882"/>
    <path style="fill: rgb(26, 51, 80); stroke: rgba(0, 0, 0, 0);" d="M 299.461 165.911 L 217.645 119.901 L 213.488 126.325 L 301.322 163.568 L 298.639 161.081 L 224.576 110.445 L 217.645 119.901 L 299.461 165.911 Z"/>
    <path style="stroke: rgba(0, 0, 0, 0); fill: rgb(26, 51, 80);" d="M 287.352 152.899 L 302.042 162.803 L 299.049 167.897 L 284.632 151.201 L 287.352 152.899 Z"/>
    <path style="stroke: rgba(0, 0, 0, 0); fill: rgb(26, 51, 80);" d="M 234.715 75.141 L 238.576 73.601 L 242.815 75.068 L 234.715 75.141 Z"/>
  </g>
</svg>